<svg viewBox="0 0 1024 640" xmlns="http://www.w3.org/2000/svg" role="img" aria-label="Stylised illustration of a 1928 hartal protest with black flags and closed shops">
  <defs>
    <linearGradient id="shSky" x1="0" y1="0" x2="0" y2="1">
      <stop offset="0%" stop-color="#0c0d0a"/>
      <stop offset="60%" stop-color="#1c1f19"/>
      <stop offset="100%" stop-color="#a1272d"/>
    </linearGradient>
  </defs>
  <rect width="1024" height="640" fill="url(#shSky)"/>

  <!-- Street / shopfronts -->
  <rect x="0" y="420" width="1024" height="220" fill="#181a14"/>
  <g fill="#241f14" stroke="#3a3222" stroke-width="2">
    <rect x="80" y="360" width="140" height="130"/>
    <rect x="260" y="340" width="150" height="150"/>
    <rect x="450" y="360" width="140" height="130"/>
    <rect x="630" y="340" width="150" height="150"/>
    <rect x="820" y="360" width="140" height="130"/>
  </g>
  <!-- shutters (closed shops) -->
  <g stroke="#d9a441" stroke-width="3" opacity="0.6">
    <line x1="90" y1="380" x2="210" y2="380"/><line x1="90" y1="400" x2="210" y2="400"/><line x1="90" y1="420" x2="210" y2="420"/>
    <line x1="270" y1="365" x2="400" y2="365"/><line x1="270" y1="390" x2="400" y2="390"/><line x1="270" y1="415" x2="400" y2="415"/>
    <line x1="460" y1="380" x2="580" y2="380"/><line x1="460" y1="400" x2="580" y2="400"/><line x1="460" y1="420" x2="580" y2="420"/>
    <line x1="640" y1="365" x2="770" y2="365"/><line x1="640" y1="390" x2="770" y2="390"/><line x1="640" y1="415" x2="770" y2="415"/>
    <line x1="830" y1="380" x2="930" y2="380"/><line x1="830" y1="400" x2="930" y2="400"/><line x1="830" y1="420" x2="930" y2="420"/>
  </g>

  <!-- Crowd silhouettes with black flags -->
  <g fill="#0c0d0a">
    <circle cx="260" cy="470" r="16"/><rect x="248" y="486" width="24" height="60" rx="6"/>
    <circle cx="330" cy="480" r="16"/><rect x="318" y="496" width="24" height="60" rx="6"/>
    <circle cx="400" cy="470" r="16"/><rect x="388" y="486" width="24" height="60" rx="6"/>
    <circle cx="600" cy="480" r="16"/><rect x="588" y="496" width="24" height="60" rx="6"/>
    <circle cx="670" cy="470" r="16"/><rect x="658" y="486" width="24" height="60" rx="6"/>
    <circle cx="740" cy="480" r="16"/><rect x="728" y="496" width="24" height="60" rx="6"/>
  </g>

  <!-- Black flags on poles -->
  <g>
    <line x1="330" y1="480" x2="330" y2="380" stroke="#3a3222" stroke-width="4"/>
    <rect x="330" y="380" width="60" height="34" fill="#0c0d0a" stroke="#d9a441" stroke-width="2"/>
    <line x1="670" y1="470" x2="670" y2="370" stroke="#3a3222" stroke-width="4"/>
    <rect x="670" y="370" width="60" height="34" fill="#0c0d0a" stroke="#d9a441" stroke-width="2"/>
  </g>

  <text x="512" y="120" text-anchor="middle" font-family="Georgia, serif" font-size="30" fill="#f0cc7a" letter-spacing="3">SIMON, GO BACK</text>
</svg>